<?xml version="1.0" encoding="iso-8859-1"?>
<!-- Generator: Adobe Illustrator 19.0.0, SVG Export Plug-In . SVG Version: 6.00 Build 0)  -->
<svg version="1.1" id="Capa_1" xmlns="http://www.w3.org/2000/svg" xmlns:xlink="http://www.w3.org/1999/xlink" x="0px" y="0px"
	 viewBox="0 0 512 512" style="enable-background:new 0 0 512 512;" xml:space="preserve">
<path style="fill:#4B3F4E;" d="M329.075,98.657c-6.366-10.711-14.003-12.163-19.348-11.518
	c-21.171,2.643-41.504,51.277-53.853,87.627c-12.349-36.35-32.682-84.984-53.853-87.627c-5.317-0.641-12.978,0.803-19.348,11.518
	c-2.328,3.925-1.037,8.992,2.884,11.324c3.917,2.328,8.988,1.033,11.324-2.884c1.577-2.659,2.78-3.486,3.05-3.562
	c0.016,0,0.036,0,0.056,0c8.443,0,30.23,41.878,47.245,98.488h17.282c17.011-56.618,38.798-98.492,47.221-98.492
	c0.016,0,0.036,0,0.052,0c0.299,0.081,1.501,0.908,3.078,3.566c2.332,3.917,7.395,5.212,11.324,2.884
	C330.112,107.649,331.403,102.582,329.075,98.657z"/>
<path style="fill:#5D5360;" d="M512,86.353c0-8.262,0.252-24.786-32.797-24.786c-96.016,0-168.255,93.489-197.818,144.505
	c-0.944,1.629-3.242,1.627-4.189,0.001c-4.284-7.352-12.196-12.312-21.322-12.312c-9.043,0-16.904,4.866-21.218,12.106
	c-0.957,1.606-3.236,1.597-4.175-0.02c-29.643-51.064-101.806-144.28-197.685-144.28C-0.252,61.566,0,78.09,0,86.353
	c0,24.786,51.283,68.474,32.797,123.932c-12.393,37.18,105.484,41.827,165.197,41.827c19.904,0,40.324-0.516,40.324-0.516
	l5.703-11.407c3.536,1.942,7.535,3.145,11.854,3.145c4.399,0,8.47-1.243,12.051-3.253l5.757,11.515c0,0,20.419,0.516,40.324,0.516
	c59.713,0,177.59-4.647,165.197-41.827C460.717,154.826,512,111.139,512,86.353z"/>
<path style="fill:#4B3F4E;" d="M408.975,241.267l-153.101,2.066v86.063c0,0,41.999,117.735,74.359,120.49
	c3.998,0.34,8.181,0.548,12.522,0.548c30.798,0,69.354-10.468,103.148-58.383C480.36,343.194,468.187,278.447,408.975,241.267
	L408.975,241.267z"/>
<g>
	<path style="fill:#00C3FF;" d="M273.265,268.114c0.206,0.006,20.859,0.522,40.742,0.522c37.877,0,67.435-1.643,90.602-4.236
		c4.924-0.551,9.791,1.124,13.433,4.483c15.156,13.975,25.196,30.896,28.852,49.128c4.427,22.074-0.721,44.986-14.495,64.517
		c-24.385,34.575-53.708,51.382-89.644,51.382c-3.571,0-7.313-0.164-11.121-0.488c-10.667-2.716-38.18-48.809-59.236-106.905
		v-58.424L273.265,268.114z"/>
	<path style="fill:#00C3FF;" d="M308.397,235.52c-9.225-0.231-14.846-10.14-10.482-18.271
		c15.926-29.67,51.702-83.905,102.335-115.18c2.545-1.572,5.557-2.444,8.548-2.494c31.163-0.514,48.808,7.813,58.642,16.386
		c5.417,4.722,6.759,12.567,3.718,19.078c-10.441,22.352-17.868,49.28-7.78,80.018c-5.445,6.28-40.651,20.531-149.37,20.531
		C311.98,235.587,310.113,235.563,308.397,235.52z"/>
</g>
<path style="fill:#8CDCFF;" d="M400.249,102.068c2.545-1.572,5.557-2.445,8.548-2.494c31.163-0.514,48.808,7.813,58.642,16.386
	c3.404,2.968,4.999,7.185,5.108,11.514c-43.933,28.053-113.485,70.006-175.988,96.972c-0.252-2.369,0.095-4.849,1.355-7.198
	C313.84,187.579,349.617,133.343,400.249,102.068z"/>
<circle style="fill:#4B3F4E;" cx="480.63" cy="89.58" r="14.07"/>
<path style="fill:#0096DC;" d="M389.577,422.323L272.398,283.532v-15.44l0.866,0.022c0.078,0.002,3.096,0.078,7.886,0.17
	l35.903,42.525l73.032,4.823l-79.038-47.002c0.986,0.003,1.974,0.005,2.959,0.005c10.196,0,19.765-0.124,28.792-0.348l83.653,49.746
	l20.645,1.364c1.007,5.526,1.418,11.092,1.246,16.646l-116.478-7.693l71.723,84.952
	C399.071,416.779,394.385,419.736,389.577,422.323z"/>
<path style="fill:#8CDCFF;" d="M432.399,382.527c-5.275,7.48-10.83,13.966-16.585,19.792l-39.235-46.472
	c-2.568-3.041-0.227-7.675,3.745-7.413l65.715,4.34C443.494,363.152,438.957,373.228,432.399,382.527z"/>
<path style="fill:#00AAF0;" d="M308.396,235.52c-0.561-0.014-1.061-0.169-1.594-0.252c65.815-9.467,123.434-29.97,152.21-41.491
	c0.612,6.875,1.962,13.961,4.364,21.279c-5.445,6.28-40.651,20.531-149.37,20.531C311.979,235.587,310.113,235.563,308.396,235.52z"
	/>
<path style="fill:#4B3F4E;" d="M103.025,241.267c-59.212,37.18-71.385,101.927-36.928,150.784
	c33.794,47.915,72.35,58.383,103.148,58.383c4.341,0,8.524-0.208,12.522-0.548c32.36-2.754,74.359-120.49,74.359-120.49v-86.063
	L103.025,241.267L103.025,241.267z"/>
<g>
	<path style="fill:#00C3FF;" d="M238.735,268.114c-0.206,0.006-20.859,0.522-40.742,0.522c-37.877,0-67.435-1.643-90.602-4.236
		c-4.924-0.551-9.791,1.124-13.433,4.483c-15.156,13.975-25.196,30.896-28.852,49.128c-4.427,22.074,0.721,44.986,14.495,64.517
		c24.385,34.575,53.708,51.382,89.644,51.382c3.571,0,7.313-0.164,11.121-0.488c10.667-2.716,38.18-48.809,59.236-106.905v-58.424
		L238.735,268.114z"/>
	<path style="fill:#00C3FF;" d="M197.993,235.587c-108.719,0-143.926-14.251-149.37-20.531c10.087-30.738,2.661-57.665-7.78-80.018
		c-3.041-6.511-1.698-14.356,3.718-19.078c9.834-8.573,27.479-16.9,58.642-16.386c2.991,0.049,6.003,0.922,8.548,2.494
		c50.633,31.275,86.409,85.51,102.335,115.18c4.364,8.131-1.256,18.04-10.482,18.271
		C201.887,235.563,200.02,235.587,197.993,235.587z"/>
</g>
<path style="fill:#8CDCFF;" d="M111.75,102.068c-2.545-1.572-5.557-2.445-8.548-2.494c-31.163-0.514-48.808,7.813-58.642,16.386
	c-3.404,2.968-4.999,7.185-5.108,11.514c43.933,28.053,113.485,70.006,175.988,96.972c0.252-2.369-0.095-4.849-1.355-7.198
	C198.16,187.579,162.383,133.343,111.75,102.068z"/>
<path style="fill:#5D5360;" d="M256.124,408.575c-4.563,0-8.262-3.699-8.262-8.262v-74.359c0-4.563,3.699-8.262,8.262-8.262
	s8.262,3.699,8.262,8.262v74.359C264.386,404.876,260.687,408.575,256.124,408.575z"/>
<circle style="fill:#4B3F4E;" cx="31.374" cy="89.58" r="14.07"/>
<path style="fill:#0096DC;" d="M122.423,422.323l117.179-138.791v-15.44l-0.866,0.022c-0.078,0.002-3.096,0.078-7.886,0.17
	l-35.903,42.525l-73.032,4.823l79.038-47.002c-0.986,0.003-1.974,0.005-2.959,0.005c-10.196,0-19.765-0.124-28.792-0.348
	l-83.653,49.746l-20.645,1.364c-1.007,5.526-1.418,11.092-1.246,16.646l116.478-7.693l-71.723,84.952
	C112.928,416.779,117.615,419.736,122.423,422.323z"/>
<ellipse style="fill:#4B3F4E;" cx="256.13" cy="280.51" rx="24.786" ry="53.704"/>
<path style="fill:#8CDCFF;" d="M79.601,382.527c5.275,7.48,10.83,13.966,16.585,19.792l39.235-46.472
	c2.568-3.041,0.227-7.675-3.745-7.413l-65.715,4.34C68.505,363.152,73.042,373.228,79.601,382.527z"/>
<path style="fill:#00AAF0;" d="M203.604,235.52c0.561-0.014,1.061-0.169,1.594-0.252c-65.815-9.467-123.434-29.97-152.21-41.491
	c-0.612,6.875-1.962,13.961-4.364,21.279c5.445,6.28,40.651,20.531,149.37,20.531C200.021,235.587,201.886,235.563,203.604,235.52z"
	/>
<g>
</g>
<g>
</g>
<g>
</g>
<g>
</g>
<g>
</g>
<g>
</g>
<g>
</g>
<g>
</g>
<g>
</g>
<g>
</g>
<g>
</g>
<g>
</g>
<g>
</g>
<g>
</g>
<g>
</g>
</svg>
