<svg height="512" viewBox="0 0 60 60" width="512" xmlns="http://www.w3.org/2000/svg"><g id="Page-1" fill="none" fill-rule="evenodd"><g id="036---Final-Destination" fill-rule="nonzero" transform="translate(-1)"><path id="Shape" d="m59.63 27.65c-1.1727146.8800095-2.4132567 1.6657975-3.71 2.35-1.3285874.7089816-2.7053043 1.3238261-4.12 1.84-.0784363.0311466-.158563.0578555-.24.08-.36.14-.72.26-1.09.38-.92.31-1.86.58-2.81.83-.32.09-.64.17-.97.25-.15.04-.3.08-.45.11-.4.1-.8.19-1.21.28-.0721757.0214037-.1456631.0381054-.22.05-.4.09-.8.17-1.2.25-.34.07-.67.14-1 .2-.47.09-.95.18-1.42.27-.31.06-.63.12-.94.17-.09.02-.18.03-.26.05-.09.02-.17.03-.26.05-.02 0-.05.01-.07.01-1.19.21-2.37.41-3.56.62h-.02c-.25.05-.49.09-.73.13-.13.03-.27.05-.4.08l-.33.06c-.49.09-.98.18-1.46.27h-.02c-.19.04-.39.08-.58.12-.0390411.0115077-.079337.0182237-.12.02-.43.09-.85.18-1.27.27-.3.06-.6.13-.89.2-.41.09-.82.19-1.22.29-.0710467.0119156-.1412066.0286204-.21.05-.48.12-.95.24-1.42.37-1.18.33-2.34.7-3.48 1.12-2.5121056.9072518-4.8954544 2.1375842-7.09 3.66-.44.31-.87.63-1.3.97-.02-.06-.05-.12-.07-.18-1.12-2.88-3.14-5.3-4.22-8.2-1.1-2.96-2.19666667-5.92-3.29-8.88-1.1-2.96-1.19-6.42-2.29-9.38.43-.34.86-.66 1.3-.97 2.19256009-1.5231249 4.5764552-2.7503769 7.09-3.65.56-.21 1.11-.4 1.68-.58.55-.18 1.1-.34 1.65-.5.0153542-.0080837.0327178-.0115564.05-.01.57-.17 1.15-.32 1.73-.46.1-.03.21-.05.32-.08.47-.11.94-.22 1.42-.33.23-.05.47-.1.71-.15.35-.07.69-.14 1.04-.21.13-.03.26-.06.39-.08.03-.01.07-.01.1-.02.0326539-.00826854.0663553-.01163868.1-.01.13-.03.27-.06.4-.08.0217823-.01122733.0455742-.01802502.07-.02 1.69-.32 3.4-.61 5.1-.91.86-.15 1.73-.31 2.59-.47.43-.07.87-.16 1.3-.24.62-.12 1.24-.24 1.85-.38.52-.11 1.04-.22 1.55-.35.34-.08.67-.16 1-.24.48-.12.95-.25 1.42-.38.55-.15 1.1-.32 1.64-.49.48-.15.96-.32 1.43-.49 1.5286834-.54903443 3.0158602-1.20740259 4.45-1.97.1986062-.09681718.3921869-.20362036.58-.32.9154409-.50767178 1.8002958-1.06863636 2.65-1.68.2408387-.17616806.5500121-.23005474.8362489-.14575212s.5168467.29716659.6237511.57575212c.95 2.56 1.9 5.13 2.84 7.69 1.1 2.96 2.1966667 5.9166667 3.29 8.87 1.02 2.74 2.03 5.48 3.05 8.22.1470017.3950605.0216564.8398341-.31 1.1z" fill="#cfd8dc"/><path id="Shape" d="m56.63 29.49c-.23.18-.47.35-.71.51-1.3285874.7089816-2.7053043 1.3238261-4.12 1.84-.0784363.0311466-.158563.0578555-.24.08-.36.14-.72.26-1.09.38-.92.31-1.86.58-2.81.83-.32.09-.64.17-.97.25-.15.04-.3.08-.45.11-.4.1-.8.19-1.21.28-.0721757.0214037-.1456631.0381054-.22.05-.4.09-.8.17-1.2.25-.34.07-.67.14-1 .2-.47.09-.95.18-1.42.27-.31.06-.63.12-.94.17-.09.02-.18.03-.26.05-.09.02-.17.03-.26.05-.02 0-.05.01-.07.01-1.19.21-2.37.41-3.56.62h-.02c-.25.05-.49.09-.73.13-.13.03-.27.05-.4.08l-.33.06c-.49.09-.98.18-1.46.27h-.02c-.19.04-.39.08-.58.12-.0390411.0115077-.079337.0182237-.12.02-.43.09-.85.18-1.27.27-.3.06-.6.13-.89.2-.41.09-.82.19-1.22.29-.0710467.0119156-.1412066.0286204-.21.05-.48.12-.95.24-1.42.37-1.18.33-2.34.7-3.48 1.12-2.5121056.9072518-4.8954544 2.1375842-7.09 3.66-.46.25-.92.51-1.37.79-1.12-2.88-3.14-5.3-4.22-8.2-1.1-2.96-2.19666667-5.92-3.29-8.88-1.1-2.96-1.19-6.42-2.29-9.38.43-.34.86-.66 1.3-.97 1.32087939-.6950351 2.68734356-1.2997539 4.09-1.81.56-.21 1.11-.4 1.68-.58.55-.18 1.1-.34 1.65-.5.0153542-.0080837.0327178-.0115564.05-.01.57-.17 1.15-.32 1.73-.46.1-.03.21-.05.32-.08.47-.11.94-.22 1.42-.33.23-.05.47-.1.71-.15.35-.07.69-.14 1.04-.21.13-.03.26-.06.39-.08.03-.01.07-.01.1-.02.0326539-.0082685.0663553-.0116387.1-.01.13-.03.27-.06.4-.08.0217823-.0112273.0455742-.018025.07-.02 1.69-.32 3.4-.61 5.1-.91.86-.15 1.73-.31 2.59-.47.43-.07.87-.16 1.3-.24.62-.12 1.24-.24 1.85-.38.52-.11 1.04-.22 1.55-.35.34-.08.67-.16 1-.24.48-.12.95-.25 1.42-.38.55-.15 1.1-.32 1.64-.49.48-.15.96-.32 1.43-.49 2.6438687-.92803095 5.1499533-2.20966614 7.45-3.81.08-.05.15-.11.23-.16.1052518-.07541394.2241036-.12974618.35-.16.4652871-.10710555.9384856.14441437 1.11.59.95 2.56 1.9 5.13 2.84 7.69 1.1 2.96 2.1966667 5.9166667 3.29 8.87 1.02 2.74 2.03 5.48 3.05 8.22.1470017.3950605.0216564.8398341-.31 1.1z" fill="#f5f5f5"/><g fill="#607d8b"><path id="Shape" d="m26.56 18.24c-3.1256556.5526777-6.1996782 1.3655041-9.19 2.43-1.1-2.96-2.1966667-5.92-3.29-8.88.56-.21 1.11-.4 1.68-.58.55-.18 1.1-.34 1.65-.5.0153542-.0080837.0327178-.0115564.05-.01.57-.17 1.15-.32 1.73-.46.1-.03.21-.05.32-.08.47-.11.94-.22 1.42-.33.23-.05.47-.1.71-.15.35-.07.69-.14 1.04-.21.13-.03.26-.06.39-.08.03-.01.07-.01.1-.02.0326539-.00826854.0663553-.01163868.1-.01 1.1 2.96 2.1966667 5.92 3.29 8.88z"/><path id="Shape" d="m33.14 35.98c-.19.04-.39.08-.58.12-.0390411.0115077-.079337.0182237-.12.02-.43.09-.85.18-1.27.27-.3.06-.6.13-.89.2-.41.09-.82.19-1.22.29-.0710467.0119156-.1412066.0286204-.21.05-.48.12-.95.24-1.42.37-1.18.33-2.34.7-3.48 1.12-1.1-2.95-2.1966667-5.9066667-3.29-8.87 2.9918713-1.0619302 6.0654019-1.877971 9.19-2.44 1.1 2.96 2.1966667 5.9166667 3.29 8.87z"/><path id="Shape" d="m45.22 14.08c-2.9948988 1.0631727-6.071854 1.8792348-9.2 2.44-1.09-2.96-2.1866667-5.92-3.29-8.88.62-.12 1.24-.24 1.85-.38.52-.11 1.04-.22 1.55-.35.34-.08.67-.16 1-.24.48-.12.95-.25 1.42-.38.55-.15 1.1-.32 1.64-.49.48-.15.96-.32 1.43-.49.1053811-.0306177.2088897-.06734655.31-.11 1.1 2.96 2.1966667 5.92 3.29 8.88z"/><path id="Shape" d="m51.8 31.84c-.0784363.0311466-.158563.0578555-.24.08-.36.14-.72.26-1.09.38-.92.31-1.86.58-2.81.83-.32.09-.64.17-.97.25-.15.04-.3.08-.45.11-.4.1-.8.19-1.21.28-.0721757.0214037-.1456631.0381054-.22.05-.4.09-.8.17-1.2.25-.34.07-.67.14-1 .2-1.1-2.96-2.1966667-5.92-3.29-8.88 3.1245981-.562029 6.1981287-1.3780698 9.19-2.44 1.09 2.96 2.1866667 5.9233333 3.29 8.89z"/><path id="Shape" d="m20.66 29.55c-3.0273539 1.077823-5.8605655 2.6379467-8.39 4.62-1.1-2.96-2.1966667-5.92-3.29-8.88 2.5294345-1.9820533 5.3626461-3.542177 8.39-4.62 1.1 2.96 2.1966667 5.92 3.29 8.88z"/><path id="Shape" d="m39.32 25.39c-3.14.61-6.33 1.1-9.47 1.72-1.1-2.96-2.1966667-5.9166667-3.29-8.87 3.14-.62 6.32-1.11 9.46-1.72 1.1 2.96 2.2 5.9166667 3.3 8.87z"/></g><path id="Shape" d="m56.89 18.33c-1.7677418 1.4036091-3.6983557 2.5888382-5.75 3.53-.86.4-1.74.76-2.63 1.09-1.07-2.87-2.12-5.73-3.19-8.6-.03-.09-.07-.18-.1-.27.91-.34 1.81-.71 2.69-1.13 1.0085981-.4679232 1.9901414-.9920807 2.94-1.57.9545331-.5839786 1.872876-1.2251489 2.75-1.92 1.1 2.96 2.1966667 5.9166667 3.29 8.87z" fill="#37474f"/><path id="Shape" d="m54 19.87c-.9089956.7248866-1.864362 1.3896346-2.86 1.99-.86.4-1.74.76-2.63 1.09-1.07-2.87-2.12-5.73-3.19-8.6.88-.42 1.74-.89 2.59-1.4.9734012-.5904874 1.9085909-1.2417802 2.8-1.95.05.13.09.25.14.38 1.05 2.83 2.11 5.67 3.15 8.49z" fill="#607d8b"/><path id="Shape" d="m19.065 58.2568-.6887.2552c-1.0355263.3836363-2.1860142-.1446032-2.57-1.18l-13.7731-37.1671c-.14180548-.3829359-.02217752-.813645.2968-1.0686l3.3608-2.6863 14.5546 39.2765c.3837943 1.0357266-.1446837 2.186478-1.1804 2.5703z" fill="#ff9801"/><path id="Shape" d="m15.5615 44.0464c-.41826.0002316-.792386-.2601203-.9375-.6524l-9.8711-26.6367c-.15043806-.4054995-.02313969-.8617562.3155-1.1308 6.7016-5.3228 14.8662-6.7442 22.7627-8.1182 7.5957-1.3223 14.7705-2.5708 20.8837-6.9751.4986272-.36417023 1.1398748-.4716626 1.73-.29.5790204.17415741 1.0421749.6108936 1.25 1.1787l9.1836 24.7837c.2979159.8084196.0343756 1.7166203-.65 2.24-6.5859 4.9551-14.5146 6.335-22.1826 7.67-8.001 1.3926-15.5595 2.708-21.8613 7.7144-.1771784.140585-.3968228.2168788-.623.2164zm-8.6777-27.2949 9.1484 24.687c6.4854-4.6514 14.1973-5.9932 21.67-7.294 7.7627-1.351 15.0967-2.6274 21.29-7.2724l-9.1729-24.7554c-6.4218 4.7124-14.1611 6.0591-21.6455 7.3618-7.7617 1.3506-15.1054 2.6289-21.29 7.273z" fill="#000"/><path id="Shape" d="m23.9473 39.4253c-.4182705-.0001218-.7922765-.2605496-.9375-.6528l-9.8711-26.6368c-.0924966-.2487053-.0822798-.523987.0283978-.7651516.1106777-.2411647.3127275-.4284085.5616022-.5204484 4.5899072-1.53735963 9.3096185-2.65586155 14.1013-3.3418 4.6718822-.66796089 9.2741533-1.75511445 13.7511-3.2483.5177922-.19188415 1.0931076.0722479 1.2851.59l9.8711 26.6367c.0924966.2487053.0822798.523987-.0283978.7651516-.1106777.2411647-.3127275.4284085-.5616022.5204484-4.5906336 1.5376783-9.3111223 2.6563494-14.1036 3.3423-4.6711368.6679271-9.272693 1.7548436-13.749 3.2476-.1112149.041202-.2287996.0625595-.3474.0631zm-8.5811-27.0342 9.1758 24.7608c4.3010884-1.34462 8.7009664-2.3499997 13.1592-3.0069 4.3382977-.6394636 8.6206598-1.6133994 12.8088-2.9131l-9.176-24.7602c-4.3017223 1.34464029-8.7022359 2.34998666-13.1611 3.0068-4.3375065.6397751-8.6191341 1.6135364-12.8067 2.9126z" fill="#000"/><path id="Shape" d="m33.1406 36.9858c-.4178409-.0002587-.7914077-.2604591-.9365-.6523l-9.8711-26.6367c-.1022281-.27514785-.0783304-.58132483.0653513-.83727893s.3926185-.43580371.6807487-.49182107c1.5742-.3062 3.1582-.5821 4.7432-.8579 1.5771-.2744 3.1543-.5494 4.7207-.854.4807354-.09369787.9585881.17458366 1.1289.6338l9.8711 26.6372c.102009.2751536.0780105.5812265-.0656365.8371188s-.3924426.4357737-.6804635.4919812c-1.5772.3066-3.1641.583-4.752.8593-1.5742.274-3.1494.5479-4.7119.8521-.0633801.0124017-.127818.0185976-.1924.0185zm-8.5215-26.875 9.1661 24.7339c1.3017-.2446 2.6093-.4721 3.9169-.7 1.1866-.2065 2.3731-.4131 3.5547-.6323l-9.166-24.7341c-1.3047.2456-2.6152.4737-3.9258.7017-1.1836.206-2.3671.4121-3.5459.6308z" fill="#000"/><path id="Shape" d="m12.2715 35.1675c-.4182783.0002899-.7924344-.2600828-.9375-.6524l-3.291-8.8789c-.15046035-.4054781-.02320358-.8617304.3154-1.1308 6.7012-5.3228 14.8662-6.7437 22.7627-8.1182 8.0019-1.3926 15.56-2.708 21.8613-7.7148.2509629-.19948757.5823548-.26655718.8911377-.18035527.308783.08620191.5575161.31522307.6688623.61585527l3.29 8.8789c.150509.4055068.0232477.8618155-.3154 1.1309-6.7 5.3232-14.8662 6.7441-22.7627 8.1186-8.001 1.3926-15.5586 2.708-21.86 7.7144-.1770873.1406576-.3966488.2170881-.6228.2168zm-2.0977-9.5375 2.5684 6.93c6.4844-4.6509 14.1973-5.9932 21.6689-7.2935 7.7618-1.3511 15.1055-2.6294 21.29-7.2734l-2.5674-6.9292c-6.4844 4.6513-14.1973 5.9936-21.67 7.2939-7.7616 1.3507-15.1053 2.6285-21.2899 7.2722z" fill="#000"/><path id="Shape" d="m17.68 59.6382c-1.2541143-.0024142-2.3748796-.7833423-2.8115-1.959l-13.7728-37.1665c-.29282965-.7875736-.04680498-1.6741498.61-2.1982l3.36-2.6861c.25074811-.2002086.58233938-.2679322.89151186-.1820806.30917249.0858515.55836964.3148494.66998814.6156806l14.5554 39.2769c.5741682 1.5533468-.2177451 3.2782862-1.77 3.8554l-.6895.2559c-.3338426.1238728-.6870169.1875261-1.0431.188zm-12.4466-41.583-2.2793 1.8222 13.7891 37.1065c.1919308.5178254.7670952.7822461 1.2851.5908l.6895-.2554c.517144-.1926476.7809909-.7673419.59-1.2851z" fill="#000"/></g></g></svg>