<svg id="Capa_1" enable-background="new 0 0 512 512" height="512" viewBox="0 0 512 512" width="512" xmlns="http://www.w3.org/2000/svg"><g><path d="m397.589 370.073h-283.178c-4.204 0-7.611-3.408-7.611-7.611 0-4.204 3.408-7.612 7.611-7.612h283.178c4.204 0 7.611 3.408 7.611 7.612.001 4.203-3.407 7.611-7.611 7.611z" fill="#7e5352"/><g fill="#94615f"><path d="m358.921 151.132 45 358.038c.203 1.617 1.578 2.83 3.208 2.83h46.637c1.946 0 3.451-1.706 3.208-3.636l-44.899-357.231h-53.154z"/><path d="m153.079 151.132-45 358.038c-.203 1.617-1.578 2.83-3.208 2.83h-46.637c-1.946 0-3.451-1.706-3.208-3.636l44.899-357.231h53.154z"/></g><g fill="#7e5352"><path d="m416.851 189.132h-53.154l2.832 22.534h53.154z"/><path d="m92.317 211.666h53.154l2.832-22.534h-53.154z"/></g><g fill="#7e5352"><path d="m432.384 312.719h-53.154l2.832 22.534h53.154z"/><path d="m76.784 335.253h53.154l2.832-22.534h-53.154z"/></g><g><path d="m467.599 122.588v64.049c0 .624-.225 1.198-.611 1.635-.462.524-1.136.861-1.884.861h-418.207c-1.385 0-2.496-1.123-2.496-2.496v-64.049c0-.624.225-1.198.611-1.647.462-.524 1.136-.849 1.884-.849h418.207c1.385 0 2.496 1.111 2.496 2.496z" fill="#fad448"/><path d="m465.103 168.683h-418.206c-1.385 0-2.496-1.123-2.496-2.496v20.449c0 1.373 1.111 2.496 2.496 2.496h418.207c.749 0 1.422-.337 1.884-.861.387-.437.611-1.011.611-1.635v-20.449c0 .624-.225 1.198-.611 1.635-.462.524-1.136.861-1.885.861z" fill="#e2b93e"/><g fill="#7d8c97"><path d="m142.801 189.132h-48.963l-48.826-68.191c.462-.524 1.136-.849 1.884-.849h46.467z"/><path d="m251.072 189.132h-48.967l-49.443-69.044h48.967z"/><path d="m359.338 189.132h-48.967l-49.443-69.044h48.967z"/><path d="m466.987 188.271c-.462.524-1.136.861-1.884.861h-46.467l-49.437-69.04h48.963z"/><path d="m142.801 189.132h-48.963l-48.826-68.191c.462-.524 1.136-.849 1.884-.849h46.467zm58.828-69.044h-48.967l49.442 69.044h48.967zm108.266 0h-48.967l49.442 69.044h48.967zm108.267.004h-48.963l49.437 69.04h46.467c.749 0 1.422-.337 1.884-.861z"/></g><g fill="#5c6c75"><path d="m187.461 168.683 14.644 20.449h48.967l-14.644-20.449z"/><path d="m79.197 168.683 14.641 20.449h48.963l-14.642-20.449z"/><path d="m295.728 168.683 14.643 20.449h48.967l-14.643-20.449z"/><path d="m452.96 168.683h-48.967l14.643 20.449h46.467c.561 0 1.081-.189 1.5-.505.14-.105.269-.225.384-.356z"/></g></g><g><path d="m467.599 246.174v64.049c0 .624-.225 1.198-.611 1.635-.462.524-1.136.861-1.884.861h-418.207c-1.385 0-2.496-1.123-2.496-2.496v-64.049c0-.624.225-1.198.611-1.647.462-.524 1.136-.849 1.884-.849h418.207c1.385.001 2.496 1.112 2.496 2.496z" fill="#fad448"/><path d="m465.103 292.27h-418.206c-1.385 0-2.496-1.123-2.496-2.496v20.449c0 1.373 1.111 2.496 2.496 2.496h418.207c.749 0 1.422-.337 1.884-.861.387-.437.611-1.011.611-1.635v-20.449c0 .624-.225 1.198-.611 1.635-.462.524-1.136.861-1.885.861z" fill="#e2b93e"/><g fill="#7d8c97"><path d="m142.801 312.719h-48.963l-48.826-68.191c.462-.524 1.136-.849 1.884-.849h46.467z"/><path d="m251.072 312.719h-48.967l-49.443-69.044h48.967z"/><path d="m359.338 312.719h-48.967l-49.443-69.044h48.967z"/><path d="m466.987 311.858c-.462.524-1.136.861-1.884.861h-46.467l-49.437-69.04h48.963z"/><path d="m142.801 312.719h-48.963l-48.826-68.191c.462-.524 1.136-.849 1.884-.849h46.467zm58.828-69.044h-48.967l49.442 69.044h48.967zm108.266 0h-48.967l49.442 69.044h48.967zm108.267.004h-48.963l49.437 69.04h46.467c.749 0 1.422-.337 1.884-.861z"/></g><g fill="#5c6c75"><path d="m187.461 292.27 14.644 20.449h48.967l-14.644-20.449z"/><path d="m79.197 292.27 14.641 20.449h48.963l-14.642-20.449z"/><path d="m295.728 292.27 14.643 20.449h48.967l-14.643-20.449z"/><path d="m452.96 292.27h-48.967l14.643 20.449h46.467c.561 0 1.081-.189 1.5-.505.14-.105.269-.225.384-.356z"/></g></g><path d="m109.101 60.062h32.769v60.026h-32.769z" fill="#d7e3f2"/><circle cx="125.485" cy="45.513" fill="#d54954" r="37.902"/><path d="m125.485 91.026c-25.096 0-45.513-20.417-45.513-45.513s20.417-45.513 45.513-45.513 45.513 20.417 45.513 45.513-20.417 45.513-45.513 45.513zm0-75.803c-16.702 0-30.29 13.588-30.29 30.29s13.588 30.29 30.29 30.29 30.29-13.588 30.29-30.29-13.588-30.29-30.29-30.29z" fill="#fad448"/><path d="m370.13 60.062h32.769v60.026h-32.769z" fill="#d7e3f2"/><circle cx="386.515" cy="45.513" fill="#d54954" r="37.902"/><path d="m386.515 91.026c-25.096 0-45.513-20.417-45.513-45.513s20.417-45.513 45.513-45.513 45.513 20.417 45.513 45.513-20.417 45.513-45.513 45.513zm0-75.803c-16.702 0-30.29 13.588-30.29 30.29s13.588 30.29 30.29 30.29 30.29-13.588 30.29-30.29-13.588-30.29-30.29-30.29z" fill="#fad448"/></g></svg>